<?xml version="1.0" standalone="no"?>
<!DOCTYPE svg PUBLIC "-//W3C//DTD SVG 20010904//EN"
 "http://www.w3.org/TR/2001/REC-SVG-20010904/DTD/svg10.dtd">
<svg version="1.0" xmlns="http://www.w3.org/2000/svg"
 width="823.000000pt" height="584.000000pt" viewBox="0 0 823.000000 584.000000"
 preserveAspectRatio="xMidYMid meet">

<g transform="translate(0.000000,584.000000) scale(0.100000,-0.100000)"
fill="#000000" stroke="none">
<path d="M2745 5246 c-335 -52 -646 -280 -799 -584 -89 -176 -122 -338 -113
-546 8 -193 61 -364 160 -518 36 -57 45 -68 110 -146 45 -53 177 -168 227
-198 119 -72 189 -103 307 -134 315 -85 665 -15 922 185 165 127 309 323 369
502 47 136 57 202 57 368 0 136 -4 174 -24 249 -59 227 -156 388 -330 550
-237 221 -565 322 -886 272z m366 -72 c89 -18 216 -65 297 -110 213 -118 394
-340 467 -571 40 -126 49 -183 49 -323 0 -158 -17 -246 -75 -389 -111 -271
-338 -485 -614 -579 -467 -159 -980 42 -1218 478 -196 358 -159 805 92 1122
182 229 421 359 721 392 55 6 209 -5 281 -20z"/>
<path d="M2724 5061 c-391 -92 -678 -414 -712 -800 -19 -219 28 -410 144 -586
136 -205 332 -342 559 -391 418 -91 852 131 1020 522 20 47 38 93 40 103 1 9
8 34 13 56 33 126 32 296 -3 430 -30 115 -96 251 -160 330 -47 58 -146 152
-202 192 -72 51 -205 113 -291 135 -114 29 -303 33 -408 9z"/>
<path d="M2130 5239 c-505 -49 -814 -140 -1072 -315 -218 -149 -350 -337 -421
-603 l-32 -116 -3 -1317 -3 -1318 535 0 535 0 4 1433 c4 1572 0 1476 63 1634
76 188 219 365 388 476 76 50 106 66 189 101 86 36 87 35 -8 34 -49 0 -128 -4
-175 -9z"/>
<path d="M3477 5221 c154 -61 245 -122 375 -251 120 -121 203 -262 255 -436
17 -55 18 -158 21 -1511 l2 -1453 540 0 541 0 -4 1303 c-3 1285 -3 1303 -24
1397 -73 324 -227 535 -514 705 -49 29 -103 58 -121 65 -18 7 -51 20 -73 30
-77 34 -261 87 -397 114 -158 32 -471 66 -603 66 l-70 -1 72 -28z"/>
<path d="M4435 5240 c11 -4 54 -18 95 -31 126 -40 334 -156 418 -233 20 -19
47 -43 59 -53 12 -10 30 -25 40 -34 96 -82 219 -293 263 -450 36 -132 40 -289
40 -1584 0 -687 0 -1258 0 -1267 0 -17 32 -18 535 -18 l535 0 0 1249 c0 820
-4 1276 -11 1328 -41 305 -203 557 -477 739 -193 130 -498 242 -792 294 -36 6
-85 15 -110 20 -158 31 -653 64 -595 40z"/>
<path d="M5500 5248 c0 -3 33 -14 72 -24 193 -47 441 -177 599 -314 190 -165
301 -330 356 -528 l28 -97 3 -1357 3 -1358 534 0 535 0 0 1253 c0 1370 2 1329
-59 1496 -74 203 -236 387 -477 543 -94 61 -309 159 -469 213 -99 34 -335 90
-484 115 -189 32 -641 73 -641 58z"/>
<path d="M620 1190 l0 -50 95 0 95 0 0 -275 0 -275 65 0 65 0 0 275 0 275 100
0 100 0 0 50 0 50 -260 0 -260 0 0 -50z"/>
<path d="M1230 915 l0 -325 60 0 60 0 0 325 0 325 -60 0 -60 0 0 -325z"/>
<path d="M1490 915 l0 -325 60 0 60 0 1 128 c1 70 1 130 0 135 -2 14 100 7
123 -8 13 -9 61 -70 105 -135 l82 -120 75 0 c57 0 73 3 68 13 -54 90 -138 209
-167 234 -20 18 -37 34 -37 37 0 2 16 10 35 16 80 26 125 91 125 177 0 67 -33
122 -90 151 -41 21 -57 22 -242 22 l-198 0 0 -325z m359 210 c48 -24 56 -86
17 -132 -23 -27 -26 -27 -137 -28 l-114 0 -3 74 c-2 41 -1 80 2 88 8 19 197
18 235 -2z"/>
<path d="M2110 1190 l0 -50 94 0 c78 0 95 -3 100 -17 4 -9 6 -131 6 -272 l-1
-256 60 -3 61 -3 0 276 0 275 100 0 100 0 0 50 0 50 -260 0 -260 0 0 -50z"/>
<path d="M2829 1213 c-27 -73 -172 -448 -204 -528 -19 -49 -35 -91 -35 -93 0
-2 30 -2 67 0 l68 3 25 70 25 70 135 3 135 3 28 -76 28 -75 70 0 69 0 -17 43
c-9 23 -67 168 -129 322 l-112 280 -71 3 c-70 3 -71 2 -82 -25z m130 -245 c22
-62 41 -116 41 -120 0 -5 -40 -8 -90 -8 -49 0 -90 4 -90 9 0 7 52 155 75 214
4 9 10 17 15 17 4 0 26 -51 49 -112z"/>
<path d="M3540 915 l0 -325 169 0 c193 0 234 9 293 67 20 20 47 59 60 87 20
44 23 67 23 171 0 104 -4 127 -24 172 -28 63 -95 128 -147 142 -22 6 -114 11
-206 11 l-168 0 0 -325z m340 199 c61 -35 75 -74 75 -199 -1 -138 -15 -177
-77 -205 -31 -14 -65 -20 -125 -20 l-83 0 0 226 0 226 88 -4 c64 -3 98 -9 122
-24z"/>
<path d="M4210 915 l0 -325 65 0 65 0 0 145 0 145 135 0 135 0 0 -145 0 -145
65 0 65 0 0 325 0 325 -65 0 -65 0 0 -130 0 -130 -135 0 -135 0 0 130 0 130
-65 0 -65 0 0 -325z"/>
<path d="M5061 1218 c-138 -352 -241 -620 -241 -624 0 -3 30 -4 67 -2 l66 3
26 73 26 73 135 -3 134 -3 27 -70 27 -70 70 -3 70 -3 -129 323 -129 323 -70 3
c-65 3 -71 1 -79 -20z m128 -255 c23 -62 41 -115 41 -118 0 -3 -40 -5 -90 -5
-49 0 -90 4 -90 9 0 25 84 241 90 234 4 -4 26 -59 49 -120z"/>
<path d="M5550 915 l0 -325 65 0 65 0 0 135 0 135 48 0 c26 0 57 -7 69 -15 12
-8 58 -69 103 -135 l81 -120 75 0 c87 0 87 -11 -1 125 -55 84 -79 113 -116
139 -27 18 -29 16 43 49 76 34 102 81 96 174 -5 75 -26 108 -88 141 -41 21
-57 22 -242 22 l-198 0 0 -325z m381 196 c22 -27 25 -88 4 -114 -18 -25 -73
-36 -172 -37 l-83 0 0 91 0 91 116 -4 c108 -3 117 -5 135 -27z"/>
<path d="M6220 915 l0 -325 55 0 55 0 0 234 c0 138 4 237 10 241 10 6 10 5 70
-235 23 -91 45 -182 51 -202 l10 -38 62 0 62 0 54 218 c82 330 79 329 80 35
l1 -253 60 0 60 0 0 325 0 325 -99 0 -98 0 -52 -201 c-29 -110 -56 -211 -61
-222 -11 -29 -9 -33 -73 213 l-54 205 -97 3 -96 3 0 -326z"/>
<path d="M7165 1206 c-27 -64 -227 -581 -232 -598 -5 -16 3 -18 60 -18 l65 0
27 75 28 76 135 -3 135 -3 26 -70 27 -70 67 -3 c37 -2 67 1 67 5 0 4 -57 151
-127 325 l-127 318 -68 0 -69 0 -14 -34z m130 -236 c21 -58 40 -111 42 -117 4
-10 -17 -13 -86 -13 -71 0 -91 3 -91 14 0 11 46 144 75 219 11 26 18 14 60
-103z"/>
</g>
</svg>
